<?xml version="1.0" encoding="utf-8"?>
<!-- Generator: Adobe Illustrator 22.1.0, SVG Export Plug-In . SVG Version: 6.00 Build 0)  -->
<svg version="1.1" xmlns="http://www.w3.org/2000/svg" xmlns:xlink="http://www.w3.org/1999/xlink" x="0px" y="0px"
	 viewBox="0 0 1455 1455" style="enable-background:new 0 0 1455 1455;" xml:space="preserve">
<style type="text/css">
	.st0{fill:#8DC63F;}
	.st1{fill:#D7DF23;}
	.st2{fill:#27AAE1;}
	.st3{fill:#F7941D;}
	.st4{fill:#EF4136;}
	.st5{fill:#FBB040;}
	.st6{fill:#00A79D;}
	.st7{fill:#F15A29;}
	.st8{fill:#F5E0CD;}
	.st9{fill:#ECC19C;}
	.st10{fill:#B5917C;}
	.st11{fill:#A46C35;}
	.st12{fill:#EFC7B0;}
	.st13{fill:#EACBC6;}
	.st14{fill:#C0A58D;}
	.st15{fill:#754C29;}
	.st16{fill:none;stroke:#ECC19C;stroke-width:31;stroke-linecap:round;stroke-linejoin:round;stroke-miterlimit:10;}
	.st17{fill:none;stroke:#000000;stroke-width:19;stroke-linecap:round;stroke-linejoin:round;stroke-miterlimit:10;}
	.st18{fill:none;stroke:#ECC19C;stroke-width:19;stroke-linecap:round;stroke-linejoin:round;stroke-miterlimit:10;}
	.st19{fill:none;stroke:#CF9E76;stroke-width:31;stroke-linecap:round;stroke-linejoin:round;stroke-miterlimit:10;}
	.st20{fill:none;stroke:#8B5E3C;stroke-width:10;stroke-linecap:round;stroke-linejoin:round;stroke-miterlimit:10;}
	.st21{fill:none;stroke:#CF9E76;stroke-width:19;stroke-linecap:round;stroke-linejoin:round;stroke-miterlimit:10;}
	.st22{fill:none;stroke:#9C7761;stroke-width:31;stroke-linecap:round;stroke-linejoin:round;stroke-miterlimit:10;}
	.st23{fill:none;stroke:#926D5A;stroke-width:19;stroke-linecap:round;stroke-linejoin:round;stroke-miterlimit:10;}
	.st24{fill:none;stroke:#8E572A;stroke-width:31;stroke-linecap:round;stroke-linejoin:round;stroke-miterlimit:10;}
	.st25{fill:none;stroke:#8E572A;stroke-width:19;stroke-linecap:round;stroke-linejoin:round;stroke-miterlimit:10;}
	.st26{fill:none;stroke:#E4B69D;stroke-width:31;stroke-linecap:round;stroke-linejoin:round;stroke-miterlimit:10;}
	.st27{fill:none;stroke:#E4B69D;stroke-width:19;stroke-linecap:round;stroke-linejoin:round;stroke-miterlimit:10;}
	.st28{fill:#3C2415;}
	.st29{fill:none;stroke:#E0ADA6;stroke-width:31;stroke-linecap:round;stroke-linejoin:round;stroke-miterlimit:10;}
	.st30{fill:none;stroke:#E0ADA6;stroke-width:19;stroke-linecap:round;stroke-linejoin:round;stroke-miterlimit:10;}
	.st31{fill:none;stroke:#9C7761;stroke-width:19;stroke-linecap:round;stroke-linejoin:round;stroke-miterlimit:10;}
	.st32{fill:#72594B;}
	.st33{fill:none;stroke:#CEA28B;stroke-width:31;stroke-linecap:round;stroke-linejoin:round;stroke-miterlimit:10;}
	.st34{fill:none;stroke:#000000;stroke-width:29;stroke-linecap:square;stroke-linejoin:round;stroke-miterlimit:10;}
	.st35{fill:#CD8B6F;}
	.st36{fill:none;stroke:#000000;stroke-width:10;stroke-linecap:round;stroke-linejoin:round;stroke-miterlimit:10;}
	.st37{fill:none;stroke:#7D4921;stroke-width:19;stroke-linecap:round;stroke-linejoin:round;stroke-miterlimit:10;}
	.st38{fill:none;stroke:#8E1722;stroke-width:19;stroke-linecap:round;stroke-linejoin:round;stroke-miterlimit:10;}
	.st39{fill:none;stroke:#CEA28B;stroke-width:19;stroke-linecap:round;stroke-linejoin:round;stroke-miterlimit:10;}
	.st40{fill:none;stroke:#CEA28B;stroke-width:11;stroke-linecap:round;stroke-linejoin:round;stroke-miterlimit:10;}
	.st41{fill:#75161C;}
	.st42{fill:#603913;}
	.st43{fill:#DFB960;}
	.st44{fill:#4D4D4F;}
</style>
<g id="Background">
	<circle class="st7" cx="727.5" cy="727.5" r="662.4"/>
</g>
<g id="Layer_3">
	<path class="st9" d="M1064.9,752c-3.3,0-6.6,0.3-9.9,0.7V616.7c0-140-119.9-253.5-267.7-253.5H668.9
		c-147.9,0-267.7,113.5-267.7,253.5v136.1c-3.6-0.5-7.3-0.8-11-0.8c-45.3,0-82,36.7-82,82c0,45.3,36.7,82,82,82
		c3.8,0,7.4-0.3,11-0.8v237l222.1,159.6h86.6h36.4h86.6l222.1-159.6V915.3c3.2,0.4,6.5,0.7,9.9,0.7c45.3,0,82-36.7,82-82
		C1146.8,788.7,1110.1,752,1064.9,752z"/>
</g>
<g id="Layer_1">
	<path class="st33" d="M1064.9,752c-3.3,0-6.6,0.3-9.9,0.7V616.7c0-140-119.9-253.5-267.7-253.5H668.9
		c-147.9,0-267.7,113.5-267.7,253.5v136.1c-3.6-0.5-7.3-0.8-11-0.8c-45.3,0-82,36.7-82,82c0,45.3,36.7,82,82,82
		c3.8,0,7.4-0.3,11-0.8v237l222.1,159.6h86.6h36.4h86.6l222.1-159.6V915.3c3.2,0.4,6.5,0.7,9.9,0.7c45.3,0,82-36.7,82-82
		C1146.8,788.7,1110.1,752,1064.9,752z"/>
	<polyline class="st34" points="469.1,734.2 493,705.5 671.7,721 	"/>
	<path class="st17" d="M528.9,779.2c0,0,29.3-51.9,129.2-4.4"/>
	<circle cx="587.3" cy="778.5" r="23.7"/>
	<polyline class="st34" points="987.7,734.2 963.8,705.5 776.9,721.7 	"/>
	<path class="st17" d="M927.9,779.2c0,0-29.3-51.9-129.2-4.4"/>
	<circle cx="869.5" cy="778.5" r="23.7"/>
	<path class="st39" d="M679.9,748.3v201.8c0,0,33.7,29,47.6,28.9c13.4-0.2,45.2-28.9,45.2-28.9"/>
	<path class="st40" d="M658.1,837.5c0,0-36,26.2-70.8,26.2"/>
	<path class="st40" d="M798.7,837.5c0,0,36,26.2,70.8,26.2"/>
	<path class="st39" d="M622.7,1057.6c0,0,104.7,41.6,211.4,0"/>
	<path class="st43" d="M418.8,719.8c-17.6-203.3,111.9-356.6,250.1-356.6h118.4c138,0,251.5,98.8,266.1,225.8
		c13.5-7.8,22.7-22.4,22.7-39.1V358.2c0-24.9-20.2-45.1-45.1-45.1H537.5C450,313.2,379,384.1,379,471.6v78.3
		C379,567.1,404.7,712.2,418.8,719.8z"/>
	<path class="st43" d="M940.6,155.2c31.8,48-28.2,82.3-77.2,136.5L495.2,404.9c0,0,162.9,300.6,541.4,119.5
		c19.1,5.5,32.6-60.2,38.1-79.3l19.7-68.3C1129.9,219.6,940.6,155.2,940.6,155.2z"/>
</g>
<g id="Guias">
</g>
</svg>
