<?xml version="1.0" encoding="utf-8"?>
<!-- Generator: Adobe Illustrator 22.1.0, SVG Export Plug-In . SVG Version: 6.00 Build 0)  -->
<svg version="1.1" xmlns="http://www.w3.org/2000/svg" xmlns:xlink="http://www.w3.org/1999/xlink" x="0px" y="0px"
	 viewBox="0 0 1455 1455" style="enable-background:new 0 0 1455 1455;" xml:space="preserve">
<style type="text/css">
	.st0{fill:#8DC63F;}
	.st1{fill:#D7DF23;}
	.st2{fill:#27AAE1;}
	.st3{fill:#F7941D;}
	.st4{fill:#EF4136;}
	.st5{fill:#FBB040;}
	.st6{fill:#00A79D;}
	.st7{fill:#F15A29;}
	.st8{fill:#F5E0CD;}
	.st9{fill:#ECC19C;}
	.st10{fill:#B5917C;}
	.st11{fill:#A46C35;}
	.st12{fill:#EFC7B0;}
	.st13{fill:#EACBC6;}
	.st14{fill:#C0A58D;}
	.st15{fill:#754C29;}
	.st16{fill:none;stroke:#ECC19C;stroke-width:31;stroke-linecap:round;stroke-linejoin:round;stroke-miterlimit:10;}
	.st17{fill:none;stroke:#000000;stroke-width:19;stroke-linecap:round;stroke-linejoin:round;stroke-miterlimit:10;}
	.st18{fill:none;stroke:#ECC19C;stroke-width:19;stroke-linecap:round;stroke-linejoin:round;stroke-miterlimit:10;}
	.st19{fill:none;stroke:#CF9E76;stroke-width:31;stroke-linecap:round;stroke-linejoin:round;stroke-miterlimit:10;}
	.st20{fill:none;stroke:#8B5E3C;stroke-width:10;stroke-linecap:round;stroke-linejoin:round;stroke-miterlimit:10;}
	.st21{fill:none;stroke:#CF9E76;stroke-width:19;stroke-linecap:round;stroke-linejoin:round;stroke-miterlimit:10;}
	.st22{fill:none;stroke:#9C7761;stroke-width:31;stroke-linecap:round;stroke-linejoin:round;stroke-miterlimit:10;}
	.st23{fill:none;stroke:#926D5A;stroke-width:19;stroke-linecap:round;stroke-linejoin:round;stroke-miterlimit:10;}
	.st24{fill:none;stroke:#8E572A;stroke-width:31;stroke-linecap:round;stroke-linejoin:round;stroke-miterlimit:10;}
	.st25{fill:none;stroke:#8E572A;stroke-width:19;stroke-linecap:round;stroke-linejoin:round;stroke-miterlimit:10;}
	.st26{fill:none;stroke:#E4B69D;stroke-width:31;stroke-linecap:round;stroke-linejoin:round;stroke-miterlimit:10;}
	.st27{fill:none;stroke:#E4B69D;stroke-width:19;stroke-linecap:round;stroke-linejoin:round;stroke-miterlimit:10;}
	.st28{fill:#3C2415;}
	.st29{fill:none;stroke:#E0ADA6;stroke-width:31;stroke-linecap:round;stroke-linejoin:round;stroke-miterlimit:10;}
	.st30{fill:none;stroke:#E0ADA6;stroke-width:19;stroke-linecap:round;stroke-linejoin:round;stroke-miterlimit:10;}
	.st31{fill:none;stroke:#9C7761;stroke-width:19;stroke-linecap:round;stroke-linejoin:round;stroke-miterlimit:10;}
	.st32{fill:#72594B;}
	.st33{fill:none;stroke:#CEA28B;stroke-width:31;stroke-linecap:round;stroke-linejoin:round;stroke-miterlimit:10;}
	.st34{fill:none;stroke:#000000;stroke-width:29;stroke-linecap:square;stroke-linejoin:round;stroke-miterlimit:10;}
	.st35{fill:#CD8B6F;}
	.st36{fill:none;stroke:#000000;stroke-width:10;stroke-linecap:round;stroke-linejoin:round;stroke-miterlimit:10;}
	.st37{fill:none;stroke:#7D4921;stroke-width:19;stroke-linecap:round;stroke-linejoin:round;stroke-miterlimit:10;}
	.st38{fill:none;stroke:#8E1722;stroke-width:19;stroke-linecap:round;stroke-linejoin:round;stroke-miterlimit:10;}
	.st39{fill:none;stroke:#CEA28B;stroke-width:19;stroke-linecap:round;stroke-linejoin:round;stroke-miterlimit:10;}
	.st40{fill:none;stroke:#CEA28B;stroke-width:11;stroke-linecap:round;stroke-linejoin:round;stroke-miterlimit:10;}
	.st41{fill:#75161C;}
	.st42{fill:#603913;}
	.st43{fill:#DFB960;}
	.st44{fill:#4D4D4F;}
</style>
<g id="Background">
	<circle class="st5" cx="727.5" cy="727.5" r="662.4"/>
</g>
<g id="Layer_3">
	<path class="st13" d="M1064.9,702c-3.3,0-6.6,0.3-9.9,0.7V566.7c0-140-119.9-253.5-267.7-253.5H668.9
		c-147.9,0-267.7,113.5-267.7,253.5v136.1c-3.6-0.5-7.3-0.8-11-0.8c-45.3,0-82,36.7-82,82c0,45.3,36.7,82,82,82
		c3.8,0,7.4-0.3,11-0.8v70.1c0,104.8,50.4,203.1,135.5,264.3l1.5,1.1c55.3,39.8,121.8,61.2,190,61.2h0c68.2,0,134.6-21.4,190-61.2
		l1.5-1.1c85.1-61.1,135.5-159.5,135.5-264.3v-69.9c3.2,0.4,6.5,0.7,9.9,0.7c45.3,0,82-36.7,82-82
		C1146.8,738.7,1110.1,702,1064.9,702z"/>
</g>
<g id="Layer_1">
	<path class="st29" d="M1064.9,702c-3.3,0-6.6,0.3-9.9,0.7V566.7c0-140-119.9-253.5-267.7-253.5H668.9
		c-147.9,0-267.7,113.5-267.7,253.5v136.1c-3.6-0.5-7.3-0.8-11-0.8c-45.3,0-82,36.7-82,82c0,45.3,36.7,82,82,82
		c3.8,0,7.4-0.3,11-0.8v70.1c0,104.8,50.4,203.1,135.5,264.3l1.5,1.1c55.3,39.8,121.8,61.2,190,61.2h0c68.2,0,134.6-21.4,190-61.2
		l1.5-1.1c85.1-61.1,135.5-159.5,135.5-264.3v-69.9c3.2,0.4,6.5,0.7,9.9,0.7c45.3,0,82-36.7,82-82
		C1146.8,738.7,1110.1,702,1064.9,702z"/>
	<path class="st17" d="M528.9,729.2c0,0,29.3-51.9,129.2-4.4"/>
	<circle cx="587.3" cy="728.5" r="23.7"/>
	<path class="st17" d="M927.9,729.2c0,0-29.3-51.9-129.2-4.4"/>
	<circle cx="869.5" cy="728.5" r="23.7"/>
	<path class="st30" d="M679.9,900.1c0,0,33.7,29,47.6,28.9c13.4-0.2,45.2-28.9,45.2-28.9"/>
	<g>
		<path d="M591.8,801.9c122.7,0,134.5-117.7,134.5-117.7H432.3C432.3,684.2,465.9,801.9,591.8,801.9z"/>
		<path d="M726.3,684.2c0,0,11.8,117.7,134.5,117.7c125.9,0,159.6-117.7,159.6-117.7H726.3z"/>
	</g>
	<path d="M825.5,1006.2l-32.8-25.5c-1.7-1.3-3.9-1.6-5.8-0.8l-52.6,22c-1.5,0.6-3.2,0.6-4.7-0.1l-47-21.9c-1.7-0.8-3.8-0.7-5.4,0.3
		l-44.1,26.3c-1.1,0.7-2.4,0.9-3.7,0.8l-10.3-1.3c-6.7-0.9-9.2,8.4-3.1,11.1l111.4,49.3c1,0.4,2.2,0.3,3.2,0l117.5-49.2
		c6.1-2.6,3.9-11.7-2.7-11.2l-15.8,1.3C828.1,1007.5,826.7,1007.1,825.5,1006.2z"/>
	<path class="st36" d="M469.1,684.2l8.4-10.1c9.7-11.7,18.2-37.2,85.7-29.5c29.8,3.4,116.7,27.1,116.7,27.1"/>
	<path class="st36" d="M974.7,684.2l-8.4-10.1c-9.7-11.7-18.2-37.2-85.7-29.5c-29.8,3.4-116.7,27.1-116.7,27.1"/>
	<path d="M502.9,282.2c-47.3,34.2-68.2,206.6-27.8,231.7h505.7c43.3-40.2,14.2-188.4-46.8-231.7H502.9z"/>
	<path d="M953.9,238.2c-57.5,0.5-227.5,46-227.5,46s-161.8-45.3-216.6-46c-332.4-4.4-154.2,549.3-154.2,549.3l59.8,45.9
		c10.9,8.4,26.4-1,24-14.6c-28-158.5-1.2-355,19.6-420.7c4.6-14.5,8.9-28.1,12.9-40.6l102.7,21.9L974,346.9
		c4.9,15.3,10.4,32.5,16.3,51.1c20.8,65.7,47.6,262.2,19.6,420.7c-2.4,13.5,13.1,22.9,24,14.6l59.8-45.9
		C1093.7,787.5,1286.3,235.1,953.9,238.2z"/>
</g>
<g id="Guias">
</g>
</svg>
