<?xml version="1.0" encoding="utf-8"?>
<!-- Generator: Adobe Illustrator 22.1.0, SVG Export Plug-In . SVG Version: 6.00 Build 0)  -->
<svg version="1.1" xmlns="http://www.w3.org/2000/svg" xmlns:xlink="http://www.w3.org/1999/xlink" x="0px" y="0px"
	 viewBox="0 0 1455 1455" style="enable-background:new 0 0 1455 1455;" xml:space="preserve">
<style type="text/css">
	.st0{fill:#8DC63F;}
	.st1{fill:#D7DF23;}
	.st2{fill:#27AAE1;}
	.st3{fill:#F7941D;}
	.st4{fill:#EF4136;}
	.st5{fill:#FBB040;}
	.st6{fill:#00A79D;}
	.st7{fill:#F15A29;}
	.st8{fill:#F5E0CD;}
	.st9{fill:#ECC19C;}
	.st10{fill:#B5917C;}
	.st11{fill:#A46C35;}
	.st12{fill:#EFC7B0;}
	.st13{fill:#EACBC6;}
	.st14{fill:#C0A58D;}
	.st15{fill:#754C29;}
	.st16{fill:none;stroke:#ECC19C;stroke-width:31;stroke-linecap:round;stroke-linejoin:round;stroke-miterlimit:10;}
	.st17{fill:none;stroke:#000000;stroke-width:19;stroke-linecap:round;stroke-linejoin:round;stroke-miterlimit:10;}
	.st18{fill:none;stroke:#ECC19C;stroke-width:19;stroke-linecap:round;stroke-linejoin:round;stroke-miterlimit:10;}
	.st19{fill:none;stroke:#CF9E76;stroke-width:31;stroke-linecap:round;stroke-linejoin:round;stroke-miterlimit:10;}
	.st20{fill:none;stroke:#8B5E3C;stroke-width:10;stroke-linecap:round;stroke-linejoin:round;stroke-miterlimit:10;}
	.st21{fill:none;stroke:#CF9E76;stroke-width:19;stroke-linecap:round;stroke-linejoin:round;stroke-miterlimit:10;}
	.st22{fill:none;stroke:#9C7761;stroke-width:31;stroke-linecap:round;stroke-linejoin:round;stroke-miterlimit:10;}
	.st23{fill:none;stroke:#926D5A;stroke-width:19;stroke-linecap:round;stroke-linejoin:round;stroke-miterlimit:10;}
	.st24{fill:none;stroke:#8E572A;stroke-width:31;stroke-linecap:round;stroke-linejoin:round;stroke-miterlimit:10;}
	.st25{fill:none;stroke:#8E572A;stroke-width:19;stroke-linecap:round;stroke-linejoin:round;stroke-miterlimit:10;}
	.st26{fill:none;stroke:#E4B69D;stroke-width:31;stroke-linecap:round;stroke-linejoin:round;stroke-miterlimit:10;}
	.st27{fill:none;stroke:#E4B69D;stroke-width:19;stroke-linecap:round;stroke-linejoin:round;stroke-miterlimit:10;}
	.st28{fill:#3C2415;}
	.st29{fill:none;stroke:#E0ADA6;stroke-width:31;stroke-linecap:round;stroke-linejoin:round;stroke-miterlimit:10;}
	.st30{fill:none;stroke:#E0ADA6;stroke-width:19;stroke-linecap:round;stroke-linejoin:round;stroke-miterlimit:10;}
	.st31{fill:none;stroke:#9C7761;stroke-width:19;stroke-linecap:round;stroke-linejoin:round;stroke-miterlimit:10;}
	.st32{fill:#72594B;}
	.st33{fill:none;stroke:#CEA28B;stroke-width:31;stroke-linecap:round;stroke-linejoin:round;stroke-miterlimit:10;}
	.st34{fill:none;stroke:#000000;stroke-width:29;stroke-linecap:square;stroke-linejoin:round;stroke-miterlimit:10;}
	.st35{fill:#CD8B6F;}
	.st36{fill:none;stroke:#000000;stroke-width:10;stroke-linecap:round;stroke-linejoin:round;stroke-miterlimit:10;}
	.st37{fill:none;stroke:#7D4921;stroke-width:19;stroke-linecap:round;stroke-linejoin:round;stroke-miterlimit:10;}
	.st38{fill:none;stroke:#8E1722;stroke-width:19;stroke-linecap:round;stroke-linejoin:round;stroke-miterlimit:10;}
	.st39{fill:none;stroke:#CEA28B;stroke-width:19;stroke-linecap:round;stroke-linejoin:round;stroke-miterlimit:10;}
	.st40{fill:none;stroke:#CEA28B;stroke-width:11;stroke-linecap:round;stroke-linejoin:round;stroke-miterlimit:10;}
	.st41{fill:#75161C;}
	.st42{fill:#603913;}
	.st43{fill:#DFB960;}
	.st44{fill:#4D4D4F;}
</style>
<g id="Background">
	<circle class="st1" cx="727.5" cy="727.5" r="662.4"/>
</g>
<g id="Layer_3">
	<path class="st9" d="M1064.9,702c-3.3,0-6.6,0.3-9.9,0.7V566.7c0-140-119.9-253.5-267.7-253.5H668.9
		c-147.9,0-267.7,113.5-267.7,253.5v136.1c-3.6-0.5-7.3-0.8-11-0.8c-45.3,0-82,36.7-82,82c0,45.3,36.7,82,82,82
		c3.8,0,7.4-0.3,11-0.8v0.4c0,292,326.6,396.2,326.6,396.2S1055,1160.1,1055,865.3v0c3.2,0.4,6.5,0.7,9.9,0.7c45.3,0,82-36.7,82-82
		C1146.8,738.7,1110.1,702,1064.9,702z"/>
</g>
<g id="Layer_1">
	<g>
		<path class="st15" d="M401.2,865.5v-0.4c-3.6,0.5-7.3,0.8-11,0.8c-33.7,0-62.7-20.4-75.3-49.5c-5.6,54.9-11,106.5-15.2,145.3
			c-3.9,36.3,24.6,67.9,61.1,67.9h79.8C416.5,983.2,401.2,928.8,401.2,865.5z"/>
		<path class="st15" d="M1178.9,957.8c-19.7-114.3-56.4-333.8-63.3-424.3c-12.7-167.6-136.2-304.3-304.3-304.3H643.7
			c-168.1,0-296.4,136.4-304.3,304.3c-2.1,45.2-9,123.1-16.7,204c14.8-21.4,39.5-35.4,67.5-35.4c3.8,0,7.4,0.3,11,0.8V566.7
			c0-140,119.9-253.5,267.7-253.5h118.4c147.9,0,267.7,113.5,267.7,253.5v135.9c3.2-0.4,6.5-0.7,9.9-0.7c45.3,0,82,36.7,82,82
			c0,45.3-36.7,82-82,82c-3.3,0-6.6-0.3-9.9-0.7v0c0,63.4-15.2,117.9-38.9,164.4h102.3C1156.5,1029.7,1185.4,995.3,1178.9,957.8z"/>
	</g>
	<path class="st19" d="M1064.9,702c-3.3,0-6.6,0.3-9.9,0.7V566.7c0-140-119.9-253.5-267.7-253.5H668.9
		c-147.9,0-267.7,113.5-267.7,253.5v136.1c-3.6-0.5-7.3-0.8-11-0.8c-45.3,0-82,36.7-82,82c0,45.3,36.7,82,82,82
		c3.8,0,7.4-0.3,11-0.8v0.4c0,292,326.6,396.2,326.6,396.2S1055,1160.1,1055,865.3v0c3.2,0.4,6.5,0.7,9.9,0.7c45.3,0,82-36.7,82-82
		C1146.8,738.7,1110.1,702,1064.9,702z"/>
	<path class="st20" d="M469.1,684.2l8.4-10.1c9.7-11.7,18.2-37.2,85.7-29.5c29.8,3.4,116.7,27.1,116.7,27.1"/>
	<path class="st17" d="M528.9,729.2c0,0,29.3-51.9,129.2-4.4"/>
	<circle cx="590.3" cy="728.5" r="23.7"/>
	<path class="st17" d="M927.9,729.2c0,0-29.3-51.9-129.2-4.4"/>
	<circle cx="864.5" cy="728.5" r="23.7"/>
	<path class="st21" d="M694.9,911.7c0,0,10,17,33.5,17c23.1,0,31.8-17,31.8-17"/>
	<path class="st20" d="M974.7,684.2l-8.4-10.1c-9.7-11.7-18.2-37.2-85.7-29.5c-29.8,3.4-116.7,27.1-116.7,27.1"/>
	<path class="st35" d="M787,989.9l-58.1,20.5c-0.9,0.3-1.9,0.3-2.9,0l-58-20.5c-0.8-0.3-1.7-0.3-2.5-0.1l-63.3,16.4
		c-3.9,1-4.4,6.5-0.7,8.1l124.2,54.9c1.1,0.5,2.4,0.5,3.5,0l128.1-56.6c3.8-1.7,3.2-7.2-0.8-8.1l-67.1-14.8
		C788.6,989.6,787.8,989.6,787,989.9z"/>
	<path class="st15" d="M1127.5,636c-5.7-40.9-10-76.9-11.9-102.5c-12.7-167.6-136.2-304.3-304.3-304.3H643.7
		c-168.1,0-296.4,136.4-304.3,304.3c-1.8,37.1-6.7,96.3-12.7,161l94,30.4c0,0,17.9-200.4,108.1-323.3c0,0,33.5,113.7,235.5,140.1
		c21.4,2.8,37.6-18.9,28.9-38.7c-14.8-33.7-24.8-83.7,5.4-137c0,0,177.3,46.6,206.9,191.3c7.8,38,30.3,159.7,30.3,159.7l28.9-15
		l61-46.5L1127.5,636z"/>
</g>
<g id="Guias">
</g>
</svg>
