<?xml version="1.0" encoding="utf-8"?>
<!-- Generator: Adobe Illustrator 22.1.0, SVG Export Plug-In . SVG Version: 6.00 Build 0)  -->
<svg version="1.1" xmlns="http://www.w3.org/2000/svg" xmlns:xlink="http://www.w3.org/1999/xlink" x="0px" y="0px"
	 viewBox="0 0 1455 1455" style="enable-background:new 0 0 1455 1455;" xml:space="preserve">
<style type="text/css">
	.st0{fill:#8DC63F;}
	.st1{fill:#D7DF23;}
	.st2{fill:#27AAE1;}
	.st3{fill:#F7941D;}
	.st4{fill:#EF4136;}
	.st5{fill:#FBB040;}
	.st6{fill:#00A79D;}
	.st7{fill:#F15A29;}
	.st8{fill:#F5E0CD;}
	.st9{fill:#ECC19C;}
	.st10{fill:#B5917C;}
	.st11{fill:#A46C35;}
	.st12{fill:#EFC7B0;}
	.st13{fill:#EACBC6;}
	.st14{fill:#C0A58D;}
	.st15{fill:#754C29;}
	.st16{fill:none;stroke:#ECC19C;stroke-width:31;stroke-linecap:round;stroke-linejoin:round;stroke-miterlimit:10;}
	.st17{fill:none;stroke:#000000;stroke-width:19;stroke-linecap:round;stroke-linejoin:round;stroke-miterlimit:10;}
	.st18{fill:none;stroke:#ECC19C;stroke-width:19;stroke-linecap:round;stroke-linejoin:round;stroke-miterlimit:10;}
	.st19{fill:none;stroke:#CF9E76;stroke-width:31;stroke-linecap:round;stroke-linejoin:round;stroke-miterlimit:10;}
	.st20{fill:none;stroke:#8B5E3C;stroke-width:10;stroke-linecap:round;stroke-linejoin:round;stroke-miterlimit:10;}
	.st21{fill:none;stroke:#CF9E76;stroke-width:19;stroke-linecap:round;stroke-linejoin:round;stroke-miterlimit:10;}
	.st22{fill:none;stroke:#9C7761;stroke-width:31;stroke-linecap:round;stroke-linejoin:round;stroke-miterlimit:10;}
	.st23{fill:none;stroke:#926D5A;stroke-width:19;stroke-linecap:round;stroke-linejoin:round;stroke-miterlimit:10;}
	.st24{fill:none;stroke:#8E572A;stroke-width:31;stroke-linecap:round;stroke-linejoin:round;stroke-miterlimit:10;}
	.st25{fill:none;stroke:#8E572A;stroke-width:19;stroke-linecap:round;stroke-linejoin:round;stroke-miterlimit:10;}
	.st26{fill:none;stroke:#E4B69D;stroke-width:31;stroke-linecap:round;stroke-linejoin:round;stroke-miterlimit:10;}
	.st27{fill:none;stroke:#E4B69D;stroke-width:19;stroke-linecap:round;stroke-linejoin:round;stroke-miterlimit:10;}
	.st28{fill:#3C2415;}
	.st29{fill:none;stroke:#E0ADA6;stroke-width:31;stroke-linecap:round;stroke-linejoin:round;stroke-miterlimit:10;}
	.st30{fill:none;stroke:#E0ADA6;stroke-width:19;stroke-linecap:round;stroke-linejoin:round;stroke-miterlimit:10;}
	.st31{fill:none;stroke:#9C7761;stroke-width:19;stroke-linecap:round;stroke-linejoin:round;stroke-miterlimit:10;}
	.st32{fill:#72594B;}
	.st33{fill:none;stroke:#CEA28B;stroke-width:31;stroke-linecap:round;stroke-linejoin:round;stroke-miterlimit:10;}
	.st34{fill:none;stroke:#000000;stroke-width:29;stroke-linecap:square;stroke-linejoin:round;stroke-miterlimit:10;}
	.st35{fill:#CD8B6F;}
	.st36{fill:none;stroke:#000000;stroke-width:10;stroke-linecap:round;stroke-linejoin:round;stroke-miterlimit:10;}
	.st37{fill:none;stroke:#7D4921;stroke-width:19;stroke-linecap:round;stroke-linejoin:round;stroke-miterlimit:10;}
	.st38{fill:none;stroke:#8E1722;stroke-width:19;stroke-linecap:round;stroke-linejoin:round;stroke-miterlimit:10;}
	.st39{fill:none;stroke:#CEA28B;stroke-width:19;stroke-linecap:round;stroke-linejoin:round;stroke-miterlimit:10;}
	.st40{fill:none;stroke:#CEA28B;stroke-width:11;stroke-linecap:round;stroke-linejoin:round;stroke-miterlimit:10;}
	.st41{fill:#75161C;}
	.st42{fill:#603913;}
	.st43{fill:#DFB960;}
	.st44{fill:#4D4D4F;}
</style>
<g id="Background">
	<circle class="st3" cx="727.5" cy="727.5" r="662.4"/>
</g>
<g id="Layer_3">
	<path class="st11" d="M1064.9,762c-3.3,0-6.6,0.3-9.9,0.7V626.7c0-140-119.9-253.5-267.7-253.5H668.9
		c-147.9,0-267.7,113.5-267.7,253.5v136.1c-3.6-0.5-7.3-0.8-11-0.8c-45.3,0-82,36.7-82,82c0,45.3,36.7,82,82,82
		c3.8,0,7.4-0.3,11-0.8V980c0,114.3,63.9,150.7,150.7,237.5c0,0,128.2,104.1,174.5,104.3c47.1,0.1,168.3-81.4,201.6-114.7
		c108.2-108.2,127.1-112.7,127.1-227v-54.7c3.2,0.4,6.5,0.7,9.9,0.7c45.3,0,82-36.7,82-82C1146.8,798.7,1110.1,762,1064.9,762z"/>
</g>
<g id="Layer_1">
	<path class="st24" d="M1064.9,762c-3.3,0-6.6,0.3-9.9,0.7V626.7c0-140-119.9-253.5-267.7-253.5H668.9
		c-147.9,0-267.7,113.5-267.7,253.5v136.1c-3.6-0.5-7.3-0.8-11-0.8c-45.3,0-82,36.7-82,82c0,45.3,36.7,82,82,82
		c3.8,0,7.4-0.3,11-0.8V980c0,114.3,63.9,150.7,150.7,237.5c0,0,128.2,104.1,174.5,104.3c47.1,0.1,168.3-81.4,201.6-114.7
		c108.2-108.2,127.1-112.7,127.1-227v-54.7c3.2,0.4,6.5,0.7,9.9,0.7c45.3,0,82-36.7,82-82C1146.8,798.7,1110.1,762,1064.9,762z"/>
	<path class="st17" d="M528.9,789.2c0,0,29.3-51.9,129.2-4.4"/>
	<circle cx="587.3" cy="788.5" r="23.7"/>
	<path class="st17" d="M927.9,789.2c0,0-29.3-51.9-129.2-4.4"/>
	<circle cx="869.5" cy="788.5" r="23.7"/>
	<path class="st25" d="M679.9,960.1c0,0,33.7,29,47.6,28.9c13.4-0.2,45.2-28.9,45.2-28.9"/>
	<path class="st36" d="M469.1,744.2l8.4-10.1c9.7-11.7,18.2-37.2,85.7-29.5c29.8,3.4,116.7,27.1,116.7,27.1"/>
	<path class="st36" d="M974.7,744.2l-8.4-10.1c-9.7-11.7-18.2-37.2-85.7-29.5c-29.8,3.4-116.7,27.1-116.7,27.1"/>
	<path class="st37" d="M607.9,1086.2c0,0,35.3,32.5,120.5,32.5c94.3,0,118.7-32.5,118.7-32.5"/>
	<path d="M587.3,444.3c0,0,34.5,135.6,176.6,152.1c0,0-39.6-142.2,0-165.3c0,0,61.5-9.9,82,56.2c0,0,50.8-59.5,17.5-76.1
		c0,0,105.3,23.1,148.5,138.9c0,0,43.2,226.9,15.9,343.9c0,0,54.3-131.2,70.1-190.8c14.6-54.8,37.7-182.9-4.4-244.7
		c-37.8-55.4-103.9-122.9-165.4-144.1c-72.4-24.9-234.3-63.2-364.4-20C502.2,314.7,355.8,399,355.8,511.4
		c0,233.8,7.9,212.2,77.3,382.6c0,0-7-264.5,16.5-340.6C469.1,490.5,466.9,457.5,587.3,444.3z"/>
	<path d="M526.1,309.2L399,399.2c-13.1,9.3-32.2,6.1-45.5-7.5L322,359.7c-17.5-17.8-18.2-72.8-1-84.9l116.7-79.3
		c17.1-12.1,65.6,5.6,76.6,28l19.8,40.3C542.5,280.9,539.2,299.9,526.1,309.2z"/>
	<path d="M1075,428.6l-113.2-107c-11.6-11-12.3-30.3-1.6-46.1l25.3-37.1c14.1-20.6,67.8-32.1,83.1-17.7l100.7,98.9
		c15.2,14.4,7.4,65.4-12.5,80.6l-35.7,27.3C1105.9,439.2,1086.6,439.6,1075,428.6z"/>
</g>
<g id="Guias">
</g>
</svg>
