<?xml version="1.0" encoding="utf-8"?>
<!-- Generator: Adobe Illustrator 22.1.0, SVG Export Plug-In . SVG Version: 6.00 Build 0)  -->
<svg version="1.1" xmlns="http://www.w3.org/2000/svg" xmlns:xlink="http://www.w3.org/1999/xlink" x="0px" y="0px"
	 viewBox="0 0 1455 1455" style="enable-background:new 0 0 1455 1455;" xml:space="preserve">
<style type="text/css">
	.st0{fill:#8DC63F;}
	.st1{fill:#D7DF23;}
	.st2{fill:#27AAE1;}
	.st3{fill:#F7941D;}
	.st4{fill:#EF4136;}
	.st5{fill:#FBB040;}
	.st6{fill:#00A79D;}
	.st7{fill:#F15A29;}
	.st8{fill:#F5E0CD;}
	.st9{fill:#ECC19C;}
	.st10{fill:#B5917C;}
	.st11{fill:#A46C35;}
	.st12{fill:#EFC7B0;}
	.st13{fill:#EACBC6;}
	.st14{fill:#C0A58D;}
	.st15{fill:#754C29;}
	.st16{fill:none;stroke:#ECC19C;stroke-width:31;stroke-linecap:round;stroke-linejoin:round;stroke-miterlimit:10;}
	.st17{fill:none;stroke:#000000;stroke-width:19;stroke-linecap:round;stroke-linejoin:round;stroke-miterlimit:10;}
	.st18{fill:none;stroke:#ECC19C;stroke-width:19;stroke-linecap:round;stroke-linejoin:round;stroke-miterlimit:10;}
	.st19{fill:none;stroke:#CF9E76;stroke-width:31;stroke-linecap:round;stroke-linejoin:round;stroke-miterlimit:10;}
	.st20{fill:none;stroke:#8B5E3C;stroke-width:10;stroke-linecap:round;stroke-linejoin:round;stroke-miterlimit:10;}
	.st21{fill:none;stroke:#CF9E76;stroke-width:19;stroke-linecap:round;stroke-linejoin:round;stroke-miterlimit:10;}
	.st22{fill:none;stroke:#9C7761;stroke-width:31;stroke-linecap:round;stroke-linejoin:round;stroke-miterlimit:10;}
	.st23{fill:none;stroke:#926D5A;stroke-width:19;stroke-linecap:round;stroke-linejoin:round;stroke-miterlimit:10;}
	.st24{fill:none;stroke:#8E572A;stroke-width:31;stroke-linecap:round;stroke-linejoin:round;stroke-miterlimit:10;}
	.st25{fill:none;stroke:#8E572A;stroke-width:19;stroke-linecap:round;stroke-linejoin:round;stroke-miterlimit:10;}
	.st26{fill:none;stroke:#E4B69D;stroke-width:31;stroke-linecap:round;stroke-linejoin:round;stroke-miterlimit:10;}
	.st27{fill:none;stroke:#E4B69D;stroke-width:19;stroke-linecap:round;stroke-linejoin:round;stroke-miterlimit:10;}
	.st28{fill:#3C2415;}
	.st29{fill:none;stroke:#E0ADA6;stroke-width:31;stroke-linecap:round;stroke-linejoin:round;stroke-miterlimit:10;}
	.st30{fill:none;stroke:#E0ADA6;stroke-width:19;stroke-linecap:round;stroke-linejoin:round;stroke-miterlimit:10;}
	.st31{fill:none;stroke:#9C7761;stroke-width:19;stroke-linecap:round;stroke-linejoin:round;stroke-miterlimit:10;}
	.st32{fill:#72594B;}
	.st33{fill:none;stroke:#CEA28B;stroke-width:31;stroke-linecap:round;stroke-linejoin:round;stroke-miterlimit:10;}
	.st34{fill:none;stroke:#000000;stroke-width:29;stroke-linecap:square;stroke-linejoin:round;stroke-miterlimit:10;}
	.st35{fill:#CD8B6F;}
	.st36{fill:none;stroke:#000000;stroke-width:10;stroke-linecap:round;stroke-linejoin:round;stroke-miterlimit:10;}
	.st37{fill:none;stroke:#7D4921;stroke-width:19;stroke-linecap:round;stroke-linejoin:round;stroke-miterlimit:10;}
	.st38{fill:none;stroke:#8E1722;stroke-width:19;stroke-linecap:round;stroke-linejoin:round;stroke-miterlimit:10;}
	.st39{fill:none;stroke:#CEA28B;stroke-width:19;stroke-linecap:round;stroke-linejoin:round;stroke-miterlimit:10;}
	.st40{fill:none;stroke:#CEA28B;stroke-width:11;stroke-linecap:round;stroke-linejoin:round;stroke-miterlimit:10;}
	.st41{fill:#75161C;}
	.st42{fill:#603913;}
	.st43{fill:#DFB960;}
	.st44{fill:#4D4D4F;}
</style>
<g id="Background">
	<circle class="st0" cx="727.5" cy="727.5" r="662.4"/>
</g>
<g id="Layer_3">
	<path class="st8" d="M1064.9,642c-3.3,0-6.6,0.3-9.9,0.7V506.7c0-140-119.9-253.5-267.7-253.5H668.9
		c-147.9,0-267.7,113.5-267.7,253.5v136.1c-3.6-0.5-7.3-0.8-11-0.8c-45.3,0-82,36.7-82,82c0,45.3,36.7,82,82,82
		c3.8,0,7.4-0.3,11-0.8v237l222.1,159.6h86.6h36.4h86.6l222.1-159.6V805.3c3.2,0.4,6.5,0.7,9.9,0.7c45.3,0,82-36.7,82-82
		C1146.8,678.7,1110.1,642,1064.9,642z"/>
</g>
<g id="Layer_1">
	<path class="st16" d="M1064.9,642c-3.3,0-6.6,0.3-9.9,0.7V506.7c0-140-119.9-253.5-267.7-253.5H668.9
		c-147.9,0-267.7,113.5-267.7,253.5v136.1c-3.6-0.5-7.3-0.8-11-0.8c-45.3,0-82,36.7-82,82c0,45.3,36.7,82,82,82
		c3.8,0,7.4-0.3,11-0.8v237l222.1,159.6h86.6h36.4h86.6l222.1-159.6V805.3c3.2,0.4,6.5,0.7,9.9,0.7c45.3,0,82-36.7,82-82
		C1146.8,678.7,1110.1,642,1064.9,642z"/>
	<polyline class="st17" points="469.1,624.2 493,595.5 679.9,611.7 	"/>
	<path class="st17" d="M528.9,669.2c0,0,29.3-51.9,129.2-4.4"/>
	<circle cx="587.3" cy="668.5" r="23.7"/>
	<polyline class="st17" points="987.7,624.2 963.8,595.5 776.9,611.7 	"/>
	<path class="st17" d="M927.9,669.2c0,0-29.3-51.9-129.2-4.4"/>
	<circle cx="869.5" cy="668.5" r="23.7"/>
	<path class="st18" d="M679.9,810.1c0,0,33.7,29,47.6,28.9c13.4-0.2,45.2-28.9,45.2-28.9"/>
	<path class="st28" d="M574.5,929.5c0,0,163.9,0,305.9,0C880.5,929.5,721.4,1025.3,574.5,929.5z"/>
	<g>
		<path class="st9" d="M691.4,1032.1c0.5-2.2,1.5-4.2,2.5-6.2c1.1-1.9,2.3-3.8,3.7-5.5c2.8-3.4,6.2-6.5,10-9
			c7.6-5,17.1-7.7,26.5-7.3c4.7,0.2,9.3,1,13.7,2.4c4.3,1.5,8.5,3.4,12.1,5.9c3.7,2.4,7,5.4,9.9,8.6c1.4,1.7,2.7,3.4,3.9,5.2
			c1.2,1.9,2.2,3.8,3.1,5.8c-2.2-0.4-4.3-0.9-6.3-1.5c-2-0.5-4-1.1-5.9-1.6c-3.8-1-7.5-2-11-2.9c-3.5-0.9-7-1.5-10.3-2.1
			c-3.3-0.5-6.6-0.8-9.9-0.9c-6.5-0.2-12.9,0.5-19.8,2c-3.4,0.8-7,1.7-10.7,2.9C699.4,1029.1,695.6,1030.5,691.4,1032.1z"/>
	</g>
	<path class="st44" d="M1071.6,653.9V510.5c0-147.6-117.9-272.2-282.3-272.2H664.5c-172.7,0-282.3,124.6-282.3,272.2v143.5l35.1,1.3
		c0,0-10.9-193.1,51.5-294.3c14.6-23.6,44.6-32.5,69.9-21.1c44.8,20.2,122.3,50.4,186.3,50.4c68.9,0,152.2-26.1,199.9-43.4
		c25.2-9.2,53.4,1.1,66.9,24.3c27.7,47.7,54.4,140.1,44.2,284.9C1036.1,656.1,1075.1,653.5,1071.6,653.9z"/>
</g>
<g id="Guias">
</g>
</svg>
