<?xml version="1.0" encoding="utf-8"?>
<!-- Generator: Adobe Illustrator 22.1.0, SVG Export Plug-In . SVG Version: 6.00 Build 0)  -->
<svg version="1.1" xmlns="http://www.w3.org/2000/svg" xmlns:xlink="http://www.w3.org/1999/xlink" x="0px" y="0px"
	 viewBox="0 0 1455 1455" style="enable-background:new 0 0 1455 1455;" xml:space="preserve">
<style type="text/css">
	.st0{fill:#8DC63F;}
	.st1{fill:#D7DF23;}
	.st2{fill:#27AAE1;}
	.st3{fill:#F7941D;}
	.st4{fill:#EF4136;}
	.st5{fill:#FBB040;}
	.st6{fill:#00A79D;}
	.st7{fill:#F15A29;}
	.st8{fill:#F5E0CD;}
	.st9{fill:#ECC19C;}
	.st10{fill:#B5917C;}
	.st11{fill:#A46C35;}
	.st12{fill:#EFC7B0;}
	.st13{fill:#EACBC6;}
	.st14{fill:#C0A58D;}
	.st15{fill:#754C29;}
	.st16{fill:none;stroke:#ECC19C;stroke-width:31;stroke-linecap:round;stroke-linejoin:round;stroke-miterlimit:10;}
	.st17{fill:none;stroke:#000000;stroke-width:19;stroke-linecap:round;stroke-linejoin:round;stroke-miterlimit:10;}
	.st18{fill:none;stroke:#ECC19C;stroke-width:19;stroke-linecap:round;stroke-linejoin:round;stroke-miterlimit:10;}
	.st19{fill:none;stroke:#CF9E76;stroke-width:31;stroke-linecap:round;stroke-linejoin:round;stroke-miterlimit:10;}
	.st20{fill:none;stroke:#8B5E3C;stroke-width:10;stroke-linecap:round;stroke-linejoin:round;stroke-miterlimit:10;}
	.st21{fill:none;stroke:#CF9E76;stroke-width:19;stroke-linecap:round;stroke-linejoin:round;stroke-miterlimit:10;}
	.st22{fill:none;stroke:#9C7761;stroke-width:31;stroke-linecap:round;stroke-linejoin:round;stroke-miterlimit:10;}
	.st23{fill:none;stroke:#926D5A;stroke-width:19;stroke-linecap:round;stroke-linejoin:round;stroke-miterlimit:10;}
	.st24{fill:none;stroke:#8E572A;stroke-width:31;stroke-linecap:round;stroke-linejoin:round;stroke-miterlimit:10;}
	.st25{fill:none;stroke:#8E572A;stroke-width:19;stroke-linecap:round;stroke-linejoin:round;stroke-miterlimit:10;}
	.st26{fill:none;stroke:#E4B69D;stroke-width:31;stroke-linecap:round;stroke-linejoin:round;stroke-miterlimit:10;}
	.st27{fill:none;stroke:#E4B69D;stroke-width:19;stroke-linecap:round;stroke-linejoin:round;stroke-miterlimit:10;}
	.st28{fill:#3C2415;}
	.st29{fill:none;stroke:#E0ADA6;stroke-width:31;stroke-linecap:round;stroke-linejoin:round;stroke-miterlimit:10;}
	.st30{fill:none;stroke:#E0ADA6;stroke-width:19;stroke-linecap:round;stroke-linejoin:round;stroke-miterlimit:10;}
	.st31{fill:none;stroke:#9C7761;stroke-width:19;stroke-linecap:round;stroke-linejoin:round;stroke-miterlimit:10;}
	.st32{fill:#72594B;}
	.st33{fill:none;stroke:#CEA28B;stroke-width:31;stroke-linecap:round;stroke-linejoin:round;stroke-miterlimit:10;}
	.st34{fill:none;stroke:#000000;stroke-width:29;stroke-linecap:square;stroke-linejoin:round;stroke-miterlimit:10;}
	.st35{fill:#CD8B6F;}
	.st36{fill:none;stroke:#000000;stroke-width:10;stroke-linecap:round;stroke-linejoin:round;stroke-miterlimit:10;}
	.st37{fill:none;stroke:#7D4921;stroke-width:19;stroke-linecap:round;stroke-linejoin:round;stroke-miterlimit:10;}
	.st38{fill:none;stroke:#8E1722;stroke-width:19;stroke-linecap:round;stroke-linejoin:round;stroke-miterlimit:10;}
	.st39{fill:none;stroke:#CEA28B;stroke-width:19;stroke-linecap:round;stroke-linejoin:round;stroke-miterlimit:10;}
	.st40{fill:none;stroke:#CEA28B;stroke-width:11;stroke-linecap:round;stroke-linejoin:round;stroke-miterlimit:10;}
	.st41{fill:#75161C;}
	.st42{fill:#603913;}
	.st43{fill:#DFB960;}
	.st44{fill:#4D4D4F;}
</style>
<g id="Background">
	<circle class="st6" cx="727.5" cy="727.5" r="662.4"/>
</g>
<g id="Layer_3">
	<path class="st14" d="M1064.9,642c-3.3,0-6.6,0.3-9.9,0.7V506.7c0-140-119.9-253.5-267.7-253.5H668.9
		c-147.9,0-267.7,113.5-267.7,253.5v136.1c-3.6-0.5-7.3-0.8-11-0.8c-45.3,0-82,36.7-82,82c0,45.3,36.7,82,82,82
		c3.8,0,7.4-0.3,11-0.8c0,0,17,76,24,116.7c17.3,100.7,216.7,239.9,251.3,239.9h103.2c34.6,0,231.1-155.1,251.3-239.9
		c6.9-28.9,24-116.5,24-116.5c3.2,0.4,6.5,0.7,9.9,0.7c45.3,0,82-36.7,82-82C1146.8,678.7,1110.1,642,1064.9,642z"/>
</g>
<g id="Layer_1">
	<path class="st22" d="M1064.9,642c-3.3,0-6.6,0.3-9.9,0.7V506.7c0-140-119.9-253.5-267.7-253.5H668.9
		c-147.9,0-267.7,113.5-267.7,253.5v136.1c-3.6-0.5-7.3-0.8-11-0.8c-45.3,0-82,36.7-82,82c0,45.3,36.7,82,82,82
		c3.8,0,7.4-0.3,11-0.8c0,0,17,76,24,116.7c17.3,100.7,216.7,239.9,251.3,239.9h103.2c34.6,0,231.1-155.1,251.3-239.9
		c6.9-28.9,24-116.5,24-116.5c3.2,0.4,6.5,0.7,9.9,0.7c45.3,0,82-36.7,82-82C1146.8,678.7,1110.1,642,1064.9,642z"/>
	<polyline class="st17" points="469.1,624.2 493,595.5 679.9,595.5 	"/>
	<path class="st17" d="M528.9,669.2c0,0,29.3-51.9,129.2-4.4"/>
	<circle cx="587.3" cy="668.5" r="23.7"/>
	<polyline class="st17" points="987.7,624.2 963.8,595.5 776.9,595.5 	"/>
	<path class="st17" d="M927.9,669.2c0,0-29.3-51.9-129.2-4.4"/>
	<circle cx="869.5" cy="668.5" r="23.7"/>
	<path class="st31" d="M693.3,810.1c0,0,9.4,28.9,35.1,28.9c23.3,0,33.3-28.9,33.3-28.9"/>
	<path class="st32" d="M614.9,947.6h227c4.5,0,5.5,8,1.3,9.8l-112.5,49c-0.8,0.4-1.7,0.4-2.5,0l-114.5-49
		C609.4,955.6,610.4,947.6,614.9,947.6z"/>
	<path class="st41" d="M812.2,489.6c0,0-199.7-9.5-209.1-170.2v-71.1c0-19.9,16.1-36,36-36h176.8c27.6,0,44.9,29.7,31.4,53.7
		C809.6,333.1,759.5,444.7,812.2,489.6z"/>
</g>
<g id="Guias">
</g>
</svg>
